<svg id="Layer_1" data-name="Layer 1" xmlns="http://www.w3.org/2000/svg" viewBox="0 0 80 300"><rect x="63" y="39.41" width="16.61" height="79.98" style="fill:#1d1d1b"/><rect x="63" y="181.85" width="16.61" height="78.73" style="fill:#1d1d1b"/><path d="M79.6,39.42H62.88a22.69,22.69,0,0,0-45.38,0H.77a39.42,39.42,0,1,1,78.83,0Z" style="fill:#1d1d1b"/><path d="M79.6,181.85H62.87a22.72,22.72,0,0,0-22.69-22.69V142.43A39.47,39.47,0,0,1,79.6,181.85Z" style="fill:#1d1d1b"/><path d="M40.19,158.81V142.08A22.7,22.7,0,0,0,62.87,119.4H79.6A39.46,39.46,0,0,1,40.19,158.81Z" style="fill:#1d1d1b"/><path d="M40.19,300A39.47,39.47,0,0,1,.77,260.59H17.5a22.69,22.69,0,0,0,45.38,0H79.6A39.46,39.46,0,0,1,40.19,300Z" style="fill:#1d1d1b"/><rect x="0.4" width="79.21" height="300" style="fill:none"/></svg>