<svg id="Layer_1" data-name="Layer 1" xmlns="http://www.w3.org/2000/svg" xmlns:xlink="http://www.w3.org/1999/xlink" viewBox="0 0 80 300"><defs><clipPath id="clip-path"><rect width="79.5" height="300" style="fill:none"/></clipPath></defs><rect x="5.24" width="74.26" height="16.67" style="fill:#1d1d1b"/><rect x="0.72" width="16.67" height="112.27" style="fill:#1d1d1b"/><rect x="62.83" y="112.22" width="16.67" height="148.22" style="fill:#1d1d1b"/><g style="clip-path:url(#clip-path)"><path d="M79.5,112.21H62.71A22.8,22.8,0,0,0,39.94,89.44V72.65A39.61,39.61,0,0,1,79.5,112.21Z" style="fill:#1d1d1b"/><path d="M17.51,112.26H.72A39.61,39.61,0,0,1,40.28,72.7V89.49A22.8,22.8,0,0,0,17.51,112.26Z" style="fill:#1d1d1b"/><path d="M39.94,300A39.6,39.6,0,0,1,.38,260.44H17.17a22.77,22.77,0,0,0,45.54,0H79.5A39.6,39.6,0,0,1,39.94,300Z" style="fill:#1d1d1b"/></g></svg>