<svg id="Layer_1" data-name="Layer 1" xmlns="http://www.w3.org/2000/svg" xmlns:xlink="http://www.w3.org/1999/xlink" viewBox="0 0 80 300"><defs><clipPath id="clip-path"><rect width="79.21" height="300" style="fill:none"/></clipPath></defs><rect x="62.6" y="39.41" width="16.61" height="79.98" style="fill:#1d1d1b"/><rect x="62.6" y="181.85" width="16.61" height="78.73" style="fill:#1d1d1b"/><g style="clip-path:url(#clip-path)"><path d="M70.84,39.41a31.05,31.05,0,0,0-62.1,0" style="fill:none;stroke:#1d1d1b;stroke-linejoin:bevel;stroke-width:16.7280591897516px"/><path d="M70.84,181.85a31.09,31.09,0,0,0-31.05-31.06" style="fill:none;stroke:#1d1d1b;stroke-linejoin:bevel;stroke-width:16.7280591897516px"/><path d="M39.79,150.44a31.09,31.09,0,0,0,31.05-31" style="fill:none;stroke:#1d1d1b;stroke-linejoin:bevel;stroke-width:16.7280591897516px"/><path d="M8.36,260.59a31.06,31.06,0,0,0,62.11,0" style="fill:none;stroke:#1d1d1b;stroke-linejoin:bevel;stroke-width:16.7280591897516px"/></g><rect y="39.41" width="16.61" height="79.98" style="fill:#1d1d1b"/><rect y="181.85" width="16.61" height="78.73" style="fill:#1d1d1b"/><g style="clip-path:url(#clip-path)"><path d="M8.36,39.41a31.06,31.06,0,0,1,62.11,0" style="fill:none;stroke:#1d1d1b;stroke-linejoin:bevel;stroke-width:16.7280591897516px"/><path d="M8.36,181.85a31.09,31.09,0,0,1,31.06-31.06" style="fill:none;stroke:#1d1d1b;stroke-linejoin:bevel;stroke-width:16.7280591897516px"/><path d="M39.42,150.44a31.09,31.09,0,0,1-31.06-31" style="fill:none;stroke:#1d1d1b;stroke-linejoin:bevel;stroke-width:16.7280591897516px"/><path d="M70.84,260.59a31.05,31.05,0,1,1-62.1,0" style="fill:none;stroke:#1d1d1b;stroke-linejoin:bevel;stroke-width:16.7280591897516px"/></g></svg>